<?xml version="1.0" standalone="no"?>
<!DOCTYPE svg PUBLIC "-//W3C//DTD SVG 20010904//EN"
 "http://www.w3.org/TR/2001/REC-SVG-20010904/DTD/svg10.dtd">
<svg version="1.0" xmlns="http://www.w3.org/2000/svg"
 width="400.000000pt" height="667.000000pt" viewBox="0 0 400.000000 667.000000"
 preserveAspectRatio="xMidYMid meet">

<g transform="translate(0.000000,667.000000) scale(0.100000,-0.100000)"
fill="#008fc3" stroke="none">
<path d="M1900 6234 c-19 -8 -44 -24 -56 -35 -20 -18 -24 -19 -120 -4 -147 22
-257 20 -304 -6 -91 -52 -109 -164 -39 -244 44 -50 90 -61 191 -45 46 6 100
13 121 15 22 2 58 6 81 9 36 6 45 3 65 -18 22 -23 23 -29 16 -119 l-7 -95 -32
4 c-40 6 -75 -13 -98 -52 -18 -30 -19 -40 -35 -373 l-5 -83 -51 5 c-29 3 -77
1 -107 -3 -30 -5 -152 -6 -270 -2 -118 4 -233 5 -255 2 l-40 -4 45 -7 c32 -4
14 -6 -62 -7 -107 -2 -108 -2 -108 21 0 13 -6 32 -14 43 -13 18 -32 19 -303
24 -232 4 -283 7 -263 17 l25 12 -28 0 c-16 1 -37 -8 -51 -22 -22 -22 -23 -28
-29 -325 -8 -330 -6 -346 48 -370 18 -8 108 -12 298 -12 305 0 308 1 326 68
l10 37 443 0 c244 0 597 2 786 3 338 3 344 2 383 -20 44 -25 69 -57 79 -104 6
-27 -3 -282 -12 -348 -4 -26 47 -44 75 -26 15 9 21 9 27 0 9 -14 270 -24 345
-12 l50 7 -1 251 c-1 225 -3 258 -22 320 -77 252 -301 413 -577 414 -44 0
-110 3 -147 7 l-68 6 0 61 c0 34 5 67 12 74 9 9 9 18 0 37 -15 33 -16 97 -2
75 7 -10 10 19 10 91 0 91 -3 110 -20 132 -19 24 -88 58 -75 37 4 -6 -5 -10
-19 -10 -14 0 -27 3 -27 8 -13 75 -17 152 -8 152 5 0 9 7 9 16 0 8 -5 12 -10
9 -18 -11 1 48 23 73 11 12 28 20 36 18 61 -17 66 -17 51 -6 -20 15 30 6 122
-21 37 -11 77 -18 88 -14 11 4 20 2 20 -4 0 -6 11 -11 25 -11 14 0 25 5 25 10
0 6 10 10 23 9 21 0 21 -1 2 -9 -17 -7 -14 -9 14 -9 45 -1 106 59 116 113 10
49 -9 112 -44 147 -44 44 -94 52 -240 40 -69 -7 -139 -14 -154 -17 -22 -5 -34
0 -55 22 -59 59 -158 80 -232 48z m700 -251 c-11 -17 -11 -17 -6 0 3 10 6 24
7 30 0 9 2 9 5 0 3 -7 0 -20 -6 -30z m-533 -305 c-3 -8 -6 -5 -6 6 -1 11 2 17
5 13 3 -3 4 -12 1 -19z m480 -1480 c-3 -7 -5 -2 -5 12 0 14 2 19 5 13 2 -7 2
-19 0 -25z m216 -25 c-7 -2 -21 -2 -30 0 -10 3 -4 5 12 5 17 0 24 -2 18 -5z"/>
<path d="M2229 5208 c-6 -27 -4 -28 30 -27 29 2 31 3 9 6 -18 3 -28 11 -30 26
-3 20 -4 19 -9 -5z"/>
<path d="M2333 5173 c15 -2 39 -2 55 0 15 2 2 4 -28 4 -30 0 -43 -2 -27 -4z"/>
<path d="M2671 3960 c10 -28 7 -34 -43 -90 -106 -116 -131 -210 -83 -306 29
-57 84 -97 158 -112 117 -24 264 37 309 129 34 70 42 106 26 126 -5 7 -7 16
-4 21 9 15 -37 96 -80 139 -63 62 -195 122 -271 123 -20 0 -21 -3 -12 -30z"/>
<path d="M2445 3279 c-39 -4 -103 -9 -142 -13 -185 -16 -379 -51 -403 -71 -8
-7 -31 -16 -50 -20 -51 -11 -109 -51 -116 -80 -4 -14 -1 -45 5 -68 6 -23 18
-89 27 -147 20 -137 21 -142 34 -295 6 -71 13 -141 15 -155 8 -39 45 -487 55
-660 5 -85 12 -184 15 -220 12 -144 36 -390 45 -465 5 -44 16 -163 25 -265 9
-102 23 -200 31 -218 17 -42 53 -58 249 -112 260 -71 501 -80 925 -35 171 18
245 36 312 72 98 53 104 72 133 403 9 96 27 276 41 400 13 124 26 261 29 305
20 349 29 461 35 470 13 18 22 116 25 260 3 168 25 387 36 359 6 -15 8 -12 8
14 1 47 38 272 51 309 9 25 9 38 -2 60 -18 38 -76 75 -108 69 -14 -3 -18 -2
-10 1 20 9 -76 35 -125 34 -29 0 -36 2 -25 9 8 5 13 10 10 10 -3 0 -104 12
-225 26 -185 22 -268 26 -525 28 -168 1 -337 -1 -375 -5z m815 -60 c36 -5 95
-12 132 -15 37 -4 66 -10 63 -14 -2 -4 6 -5 18 -3 12 2 40 -5 62 -16 22 -11
44 -16 48 -12 11 10 109 -17 122 -33 6 -7 20 -18 33 -25 35 -19 26 -40 -28
-64 -27 -12 -49 -26 -49 -32 0 -5 -5 -11 -12 -14 -7 -2 -9 1 -4 9 6 9 3 9 -13
1 -11 -6 -34 -11 -50 -11 -16 0 -35 -7 -42 -15 -13 -16 -35 -21 -26 -6 4 5
-20 3 -51 -4 -52 -12 -78 -16 -188 -30 -17 -2 -101 -7 -188 -11 -87 -4 -159
-10 -161 -13 -4 -6 -280 2 -476 13 -136 8 -329 32 -405 51 -33 8 -72 14 -87
15 -14 0 -56 13 -92 30 -85 38 -88 59 -14 95 28 14 59 25 68 25 9 0 20 4 26 9
29 27 391 69 734 85 117 6 508 -5 580 -15z m477 -261 c-10 -39 -37 -257 -37
-296 0 -29 3 -34 11 -22 8 11 9 7 5 -20 -4 -18 -10 -36 -15 -40 -11 -7 -26
-214 -23 -315 1 -45 -4 -106 -12 -140 -8 -33 -22 -175 -31 -315 -27 -414 -39
-564 -54 -675 -6 -38 -15 -122 -21 -185 -16 -169 -31 -292 -40 -315 -22 -59
-221 -129 -390 -139 -41 -2 -147 -9 -235 -16 -88 -6 -182 -8 -210 -5 -27 2
-84 7 -126 10 -100 7 -214 29 -278 55 -28 11 -63 20 -76 20 -13 0 -26 4 -29 8
-3 5 -34 17 -70 26 l-65 18 -9 51 c-6 29 -17 135 -26 237 -10 102 -23 239 -31
305 -15 125 -41 455 -75 930 -11 154 -25 305 -30 335 -6 30 -12 93 -15 140 -6
89 -33 326 -40 348 -6 16 10 15 62 -3 44 -15 266 -60 348 -70 28 -3 64 -7 80
-9 59 -7 281 -17 350 -16 167 2 518 19 610 28 55 6 107 10 115 10 8 0 48 8 89
17 40 9 81 15 90 14 45 -4 95 2 82 10 -9 6 -1 13 30 24 62 22 72 21 66 -5z
m-20 -290 c-3 -7 -5 -2 -5 12 0 14 2 19 5 13 2 -7 2 -19 0 -25z"/>
<path d="M3661 2224 c0 -11 3 -14 6 -6 3 7 2 16 -1 19 -3 4 -6 -2 -5 -13z"/>
<path d="M3761 2614 c0 -11 3 -14 6 -6 3 7 2 16 -1 19 -3 4 -6 -2 -5 -13z"/>
<path d="M3753 2525 c0 -22 2 -30 4 -17 2 12 2 30 0 40 -3 9 -5 -1 -4 -23z"/>
<path d="M3712 2020 c0 -14 2 -19 5 -12 2 6 2 18 0 25 -3 6 -5 1 -5 -13z"/>
<path d="M3702 1920 c0 -19 2 -27 5 -17 2 9 2 25 0 35 -3 9 -5 1 -5 -18z"/>
</g>
</svg>
